/* XPM */
static char *dfadd02c77644ae8e2a20a038d2b01e8UWu1JSsOjN0cREQl[] = {
/* columns rows colors chars-per-pixel */
"50 50 192 2 ",
"   c #010101",
".  c #070906",
"X  c #090B07",
"o  c #040508",
"O  c #06080C",
"+  c #0C0D0A",
"@  c #130E0B",
"#  c #0F110D",
"$  c #12130E",
"%  c #19140F",
"&  c #0B0E18",
"*  c #090C10",
"=  c #0D1215",
"-  c #0E121C",
";  c #131412",
":  c #1C1612",
">  c #161913",
",  c #1B1C14",
"<  c #13151B",
"1  c #13191B",
"2  c #1B1C1B",
"3  c #211711",
"4  c #241A14",
"5  c #291E16",
"6  c #251E1A",
"7  c #1C2016",
"8  c #1C221A",
"9  c #2C2017",
"0  c #21261C",
"q  c #2C2119",
"w  c #23291E",
"e  c #292A1F",
"r  c #32261C",
"t  c #35291E",
"y  c #392B1F",
"u  c #101520",
"i  c #151A22",
"p  c #1C1D21",
"a  c #161C2C",
"s  c #181E2F",
"d  c #1C2324",
"f  c #1C242D",
"g  c #1F2A2C",
"h  c #1C2433",
"j  c #1F2931",
"k  c #1C253A",
"l  c #1E283D",
"z  c #242423",
"x  c #292522",
"c  c #262D21",
"v  c #282D23",
"b  c #242B2B",
"n  c #2C2E2E",
"m  c #342A21",
"M  c #3A2D21",
"N  c #312D29",
"B  c #2A3225",
"V  c #27312F",
"C  c #2E3628",
"Z  c #313426",
"A  c #3E3124",
"S  c #303827",
"D  c #31342A",
"F  c #353E2C",
"G  c #393D2E",
"H  c #212B32",
"J  c #222C3E",
"K  c #263235",
"L  c #2D3233",
"P  c #2A383C",
"I  c #313435",
"U  c #343837",
"Y  c #30373A",
"T  c #343A3B",
"R  c #393C3A",
"E  c #433426",
"W  c #463728",
"Q  c #473828",
"!  c #4C3B2B",
"~  c #513F2D",
"^  c #423E31",
"/  c #37412F",
"(  c #3A412F",
")  c #3B4332",
"_  c #54412E",
"`  c #434B37",
"'  c #424E38",
"]  c #4B4D39",
"[  c #564430",
"{  c #594430",
"}  c #5E4933",
"|  c #47543C",
" . c #49563E",
".. c #624C35",
"X. c #634E38",
"o. c #675037",
"O. c #67523B",
"+. c #6B543A",
"@. c #70563B",
"#. c #745A3D",
"$. c #785D3F",
"%. c #232E41",
"&. c #263345",
"*. c #283646",
"=. c #2C3C44",
"-. c #2C3C4B",
";. c #323D42",
":. c #2F404B",
">. c #324245",
",. c #364C44",
"<. c #3C4A44",
"1. c #33434C",
"2. c #38474D",
"3. c #364A4F",
"4. c #384C4A",
"5. c #395047",
"6. c #3F534C",
"7. c #324451",
"8. c #354955",
"9. c #394E52",
"0. c #3D5355",
"q. c #3C535B",
"w. c #4E5B42",
"e. c #45554C",
"r. c #47584E",
"t. c #485648",
"y. c #4A5D53",
"u. c #40575D",
"i. c #435D5D",
"p. c #485F5F",
"a. c #425954",
"s. c #745C41",
"d. c #785E41",
"f. c #4A604A",
"g. c #596048",
"h. c #56664F",
"j. c #466355",
"k. c #4C6255",
"l. c #4B655C",
"z. c #4C6F5C",
"x. c #536454",
"c. c #526C5D",
"v. c #576B57",
"b. c #52795E",
"n. c #55735D",
"m. c #60614E",
"M. c #7B6245",
"N. c #7E6548",
"B. c #405962",
"V. c #466164",
"C. c #4A6564",
"Z. c #4D6A65",
"A. c #496669",
"S. c #4D6B6B",
"D. c #536F6D",
"F. c #4D706A",
"G. c #517265",
"H. c #5C7564",
"J. c #5A7963",
"K. c #52746D",
"L. c #557C6C",
"P. c #5A796F",
"I. c #5A7C73",
"U. c #547571",
"Y. c #607D66",
"T. c #80674A",
"R. c #846A4C",
"E. c #8A6E4F",
"W. c #8E7251",
"Q. c #5E8066",
"!. c #5C8173",
"~. c #5D837A",
"^. c #618167",
"/. c #638669",
"(. c #6A8B6D",
"). c #638C7C",
"_. c #638676",
"`. c #699876",
"'. c #65937D",
"]. c #69907C",
"[. c #799479",
"{. c #739273",
"}. c #658E80",
"|. c #6B9481",
" X c #6A9B82",
".X c #709E87",
"XX c #719685",
"oX c #70A483",
"OX c #74A489",
"+X c #7AA48E",
"@X c #81AC93",
"#X c #86B197",
/* pixels */
"c v c w 8 7 > X . . X X X X X X X X X X X X X X X X X X X X X X + X X X X X X X X . + $ 7 w w w e c ",
"( / / C c 7 > # @ 0 0 $ $ $ $ , e e w 7 7 7 7 7 $ > 7 7 7 7 7 w e e 7 $ $ $ $ w 8 $ $ $ 8 w C / / ) ",
" .| ) / B 8 # # 7 F ) 8 , 7 8 S ` ` ( c c B F v 7 7 B / B c c / ` ` Z 0 7 , 8 ( / 7 $ $ 8 B / ' |  .",
"B B B c 8 8 $ + X w S 0 7 w / S , 7 , > > 7 B 0 $ $ 8 S 7 > > , 7 7 Z / 0 7 0 S 0 # # $ 7 0 w B B B ",
"c w 8 7 w B , X . > 0 c c w C 8 @ X + # # > c 2 ; > 2 c > X $ # + + w B c w c 8 > X X > Z w 8 8 c S ",
"/ B 8 8 B ] 0 X X X $ S S w > # X # # ; ; < 2 6 p 2 2 2 $ > $ # # + + % c S S > X X X 0 ] Z 7 8 / | ",
"w w 8 w e B > X X X X , 7 > # # $ $ ; a a H -.J s f J >.h a a 1 ; $ # # > , > # X X # , Z / S 0 8 S ",
"c w 8 w w w 7 > # X X X # X # = 2 d K 7.*.-.V.7.k %.8.V.*.l &.b d 1 $ # $ X + + X # > 7 8 S F 0 c B ",
"F c 8 8 w e / B # X # X # # # 1 k 7.S.~.S.V.).0.%.8.S._.-.&.q.q.7.k u = ; > $ X X $ B S B w 8 8 /  .",
"/ B 8 c w 7 7 > + + + # # > K 9.A.!.L.q.-.u.+XC.k &.D.+X8.%.*.S.L.:.=.K 1 $ = X + # 7 0 7 c B w F ) ",
"/ B w C w + + + X X # 8 d V >.0.G. XL.a s 1.@XZ.a a C.@X1.a s L.).3.1.=.d 2 ; + X X + X # w C 8 /  .",
"/ B 8 B 0 + + X X # d 1.Z.F.d * 7 G.l.O o b ).,.o o >.].g o O C.G.= X 1 1.*.s < $ X + + X w B 8 /  .",
"F B 8 F v + + + ; g >.S.~.'.>.P 5.'.!.H P j.+Xl.f < a.OX,.P ,.)._.K a f V.B.*.h 1 + @ + X B S 0 / ) ",
"F B 0 ) S $ + $ z 1.A.~. X Xi.l.!.+X|.9.Z.'.#XI.:.k C.+XC.i.!.+X|.9.%.&.I.S.8.%.f > ; ; % Z ( w /  .",
"F B 7 w B S , d 1.S.U.:.q.q.g = d 0.9.= 1 K C.P = O P C.g = 8 0.0.1 * 1 q.8.%.7.*.s < 7 C B c 0 / f.",
"/ B 7 8 w v V >.S.S.0.f >.V.f = - 0.9.- & j C.=.& - =.A.g & - 3.0.- & f V.:.a *.-.*.f d c w w 8 / ) ",
"F B 8 w 0 ; =.A.).q.h O ,.~.-.l &.K.F.l l 1.).q.l l q.'.7.l J F.U.J l 1.~.,.* s -.q.&.s ; 8 c 8 / | ",
"F B 7 1 ; ; h 8.P.Z.u.e.l.I.U.K.K. X).l.S.!.OX!.V.F.).oXG.C.K. X'.p.Z.K.I.G.l.p.V.C.*.a ; ; 1 7 F | ",
"F B , $ + = < H e.e.e.e.r.r.l.c.Z.J.n.e.k.n.b.j.6.j.z.b.y.y.Z.J.n.r.x.l.r.y.c.r.e.<.H 1 $ # # 8 F | ",
"F B , $ + O . @ 3 4 4 4 4 4 4 4 4 4 4 4 4 : X X X X X X % 4 4 4 4 4 4 4 4 4 4 4 % . . O . + = 8 F | ",
"F B , # X O @ : 3 ! O.{ ..O.+.+.O._ ! +.+.X.~ r 4 [ } X.O.+.+.~ ~ X.O.+.O.{ W ~ M $ % @ X X ; 8 F  .",
"/ B 7 $ + X : 3 5 } T.+.s.T.R.R.N.} o.T.E.R.+.E m T.W.R.R.R.R.X...T.R.R.R.+.{ o.~ 5 3 : + + ; 7 F ) ",
"/ B 8 > ; ; : 5 t ! { ! ! ! { { Q Q ! } @.@._ r y N.N.} } ..} ! ! } ......~ W _ ! r 5 : = ; , 7 /  .",
"F B 8 ; ; 2 3 5 M _ ..Q ~ ..o...} ! _ o.@.+._ e t s.d.o.o.O.O.~ ~ o.o.o.o.~ E ..{ y 5 3 2 : 1 7 /  .",
"/ B 8 $ ; 2 , q A } ..Q } $.$.$.$.! _ #.#.@.} M r +.$.#.$.$.@.~ ~ d.$.$.$.{ E ..} A 9 4 2 > > 8 / ) ",
"F B 8 # # ; 3 5 E ~ { A { $.$.$.#._ ! } @.@.{ y y M.d...@.+.} ! ~ s.$.$.$.} W { [ A 9 : = # = 8 /  .",
"/ B 8 ; @ = : q E ! ~ A ~ +.#.$.#.{ ! { } } { M r $.@.~ ....{ Q ! o.#.s.+._ W _ ! E 9 : ; $ $ 8 / f.",
"F B 8 > ; ; : q E ! _ E ! } @.#.#.} _ [ ! ! _ y r ..} ` ~ { { ! Q { o.+.} ! W ~ ! A 9 : = > 7 8 / ) ",
"/ B 8 > # + : 5 m ! ~ A Q [ } } } ! ! Q x.v.! t 9 ~ m.J.] ~ { E E [ } } { [ [ [ ! M 5 : X $ 7 8 / | ",
"F B 8 $ + X : 4 q E ! M E _ _ _ ! W A A t.x.h.G t g.v.j.^ E ~ E A ! ~ [ ~ ! ! ! E q 4 ; . # $ 8 / | ",
"/ B 7 # + O : 3 4 t A M A Q [ _ Q A M m q ) `.y.Z `.v.9 y A E M A W ~ [ W A M E y 4 4 % . # $ 8 / ) ",
"F B 2 ; @ O X 2 ;.G./.H.H.J.(.{.[.(././.J.k.t.B q ) t.G.J.Y.H.Y.(.[.{.(.Y.J./.H.y.;.2 + . # 7 8 /  .",
"F B 8 > @ + O 1 -.U.].~.I.~.|..X+X.X|. X).l.q 3 4 4 <.~.].).I.}..X+XOX}.~.).'.~.S.:.1 X + ; , 2 F | ",
"/ B 8 # = = X = k 7.B.B.B.B.B.B.B.B.B.B.B.2.5 3 3 3 I B.B.B.B.B.B.B.B.B.B.u.B.B.7.k & X = ; > 7 F | ",
"/ B 8 # # ; $ : p b L L L L T T C L I R I I T b 6 I Y L L L L L I R R R I L L L b p : ; ; # ; 8 F | ",
"/ B 8 # + ; : : 3 5 5 3 4 9 y r 5 4 5 r x n 1.n 6 ;.Y z 4 4 5 3 9 m M m 9 4 3 5 4 4 3 : ; # # 8 / | ",
"F B 8 = > 2 + @ 4 r y 4 r M E A y 5 4 4 T >.x 4 4 6 I 2.x 5 E 5 9 A E A A r 4 y m r % = 2 , ; 7 F | ",
"/ B 8 # $ 1 ; : 5 y M 5 y ! W W ! r 5 r n L t 5 4 r N I N M E m y ! Q E ! M r A E t 3 ; < ; > 8 / | ",
"F B 8 # + ; : 5 y M M 5 E _ ! ! _ r r W r r E r 6 E t 5 M W W M A _ ! ! _ W y E M y 5 : > # ; 8 U | ",
"/ c 8 # @ 2 4 5 y A M t W _ ~ _ { M M ~ E E _ y 5 ! W M ~ ~ ~ W W _ { _ _ ! M ! W y 5 : 2 # + 8 F | ",
"/ B 2 + @ 2 2 5 M W W M Q { { { { E E { ~ ! { y 5 ~ _ ! _ { _ W W _ { { ! W E ~ ! m 5 4 2 + $ 8 F | ",
"F B 7 $ + = 3 q A ! ~ M Q { { { _ E E _ { { { y 9 ! _ { { { [ E E _ { _ W E W ~ ! E q : = @ $ 8 F ' ",
"w w 2 $ + = 3 5 M ! _ E ! { { _ _ Q Q { { { { y 9 ~ { { { { _ ! W _ { ~ W M E ~ ! m 5 : ; + # 8 c B ",
"c w 2 + + ; : 5 M ! ~ W ! _ _ _ _ W Q { { _ _ t 5 ! _ ~ _ { { W W ~ _ _ W M M ~ ! M 5 3 ; + X 8 c B ",
"F B 8 X O ; : 5 E ! ~ W ! _ W ! _ E E { { _ E r 9 ~ ! W _ _ _ E y E ! _ W M M ~ ~ E 5 : ; O + 2 F | ",
"c w 7 1 ; 2 @ 3 m W W A W W E W _ W E _ ~ Q E r 9 ~ ! E Q ! ! A M E W ! E y r E E m 4 $ 1 2 , 7 c C ",
"B B v c 0 2 + $ r M E m M A y W ! y y ~ W E E r 9 ! ! E E A A y y A A A E r 4 y m r $ + 2 z c c B B ",
"| | ' / c ; + @ 3 t A M M y A E W 9 r W E A y 9 9 ! ~ E E A y 9 5 y M m m q 4 t r 4 + X ; c / ' |  .",
"w.w. .' C + o . @ $ : % % % : 4 % $ @ : 4 : % @ @ 4 4 : : : % $ @ % % % % @ @ $ @ @ . . = Z '  .w.w.",
"w.w.w. .C X                                                                           . ; D  .w.w.w."
};
