/* XPM */
static char *_7ac64f3693447589afc9cf9ffcba88cuwYVGoihdtI1nrj9[] = {
/* columns rows colors chars-per-pixel */
"32 32 215 2 ",
"   c None",
".  c #030100",
"X  c #070401",
"o  c #080703",
"O  c #0C0A07",
"+  c #0E0B08",
"@  c #0F0C08",
"#  c #100F0B",
"$  c #120F0B",
"%  c #13100E",
"&  c #14120E",
"*  c #14120F",
"=  c #16140F",
"-  c #171410",
";  c #181612",
":  c #1A1613",
">  c #1A1713",
",  c #1B1714",
"<  c #1B1814",
"1  c #1B1A14",
"2  c #1C1A16",
"3  c #1C1B16",
"4  c #1F1C18",
"5  c #201C1A",
"6  c #201E1A",
"7  c #221F1B",
"8  c #23201C",
"9  c #25221C",
"0  c #25221E",
"q  c #26221F",
"w  c #272320",
"e  c #272522",
"r  c #272622",
"t  c #292622",
"y  c #292722",
"u  c #2A2722",
"i  c #2A2723",
"p  c #2B2723",
"a  c #2B2925",
"s  c #2D2925",
"d  c #2E2A26",
"f  c #2E2B27",
"g  c #2E2D27",
"h  c #2F2D27",
"j  c #312E29",
"k  c #322E2A",
"l  c #332F2B",
"z  c #35312D",
"x  c #35322E",
"c  c #36332E",
"v  c #37352F",
"b  c #393531",
"n  c #3A3632",
"m  c #3A3733",
"M  c #3B3935",
"N  c #3D3A35",
"B  c #3E3A36",
"V  c #403B37",
"C  c #413D39",
"Z  c #413E3A",
"A  c #42403A",
"S  c #44413B",
"D  c #45413D",
"F  c #46423E",
"G  c #484440",
"H  c #484541",
"J  c #494641",
"K  c #4A4842",
"L  c #4C4844",
"P  c #4D4945",
"I  c #4D4A46",
"U  c #4E4C48",
"Y  c #504D48",
"T  c #514D49",
"R  c #524E4A",
"E  c #54504C",
"W  c #54514D",
"Q  c #55524D",
"!  c #56544E",
"~  c #585450",
"^  c #595551",
"/  c #5A5652",
"(  c #5A5854",
")  c #5C5954",
"_  c #5D5A55",
"`  c #5F5A56",
"'  c #605C58",
"]  c #605D59",
"[  c #605F5A",
"{  c #61605A",
"}  c #63605A",
"|  c #63605C",
" . c #64605C",
".. c #65615D",
"X. c #65635F",
"o. c #67635F",
"O. c #676460",
"+. c #676560",
"@. c #686560",
"#. c #696761",
"$. c #6B6763",
"%. c #6B6864",
"&. c #6C6864",
"*. c #6C6965",
"=. c #6D6965",
"-. c #6D6B67",
";. c #6D6C67",
":. c #6F6C67",
">. c #6F6D68",
",. c #706D68",
"<. c #706D69",
"1. c #716D69",
"2. c #716F6B",
"3. c #73706C",
"4. c #73716D",
"5. c #74716D",
"6. c #74736D",
"7. c #75736D",
"8. c #75736F",
"9. c #777470",
"0. c #787470",
"q. c #787571",
"w. c #7A7571",
"e. c #7A7573",
"r. c #7A7773",
"t. c #7A7873",
"y. c #7B7A74",
"u. c #7C7A75",
"i. c #7E7B77",
"p. c #7F7B78",
"a. c #7F7C78",
"s. c #807C78",
"d. c #807C7A",
"f. c #807E7A",
"g. c #807F7A",
"h. c #82807B",
"j. c #83807C",
"k. c #84827E",
"l. c #84827F",
"z. c #86837F",
"x. c #868380",
"c. c #868480",
"v. c #878680",
"b. c #878682",
"n. c #888682",
"m. c #888683",
"M. c #8A8783",
"N. c #8A8784",
"B. c #8B8886",
"V. c #8C8886",
"C. c #8C8A86",
"Z. c #8C8B86",
"A. c #8C8B87",
"S. c #8E8C87",
"D. c #8E8C88",
"F. c #8F8C88",
"G. c #908C8A",
"H. c #908E8B",
"J. c #928F8C",
"K. c #938F8C",
"L. c #93908C",
"P. c #93928E",
"I. c #969390",
"U. c #979592",
"Y. c #999693",
"T. c #999793",
"R. c #9A9995",
"E. c #9B9996",
"W. c #9D9A97",
"Q. c #9D9A99",
"!. c #9E9B99",
"~. c #9F9D99",
"^. c #A19F9D",
"/. c #A29F9D",
"(. c #A29F9E",
"). c #A3A19E",
"_. c #A3A19F",
"`. c #A5A29F",
"'. c #A6A39F",
"]. c #A6A5A1",
"[. c #A6A5A2",
"{. c #A7A6A3",
"}. c #AAA7A6",
"|. c #ABA9A6",
" X c #ABAAA7",
".X c #ADABA9",
"XX c #AEABAA",
"oX c #AFADAB",
"OX c #B1AEAB",
"+X c #B2AFAD",
"@X c #B2B1AE",
"#X c #B4B2AF",
"$X c #B5B2B1",
"%X c #B6B4B2",
"&X c #B9B6B4",
"*X c #B9B8B5",
"=X c #B9B9B6",
"-X c #BAB9B6",
";X c #BAB9B8",
":X c #BCBAB9",
">X c #BDBCB9",
",X c #BEBDBA",
"<X c #BEBEBC",
"1X c #C1C0BE",
"2X c #C2C1BE",
"3X c #C4C2C0",
"4X c #C5C4C1",
"5X c #C5C5C2",
"6X c #C9C6C5",
"7X c #CAC8C6",
"8X c #CAC9C8",
"9X c #CCCAC9",
"0X c #CCCCCA",
"qX c #D1D1D0",
"wX c #D3D1D1",
/* pixels */
"                                                                ",
"                                                                ",
"                                                                ",
"                                                                ",
"                                                                ",
"9 x : o X X X X X X . X 9 x , X X X . X 9 x , o X X X X X X . X ",
"^ F.O.I K H H H H A d 2 ^ F.O.H H A d 2 ^ F.O.I K H H H H A d 2 ",
"' :.W A C C C C C C B C ' >.W C C C B C ' >.W A C C C C C C B C ",
"f.f.f.z.R.z.R ,.h.f.M.Z.` 3.W W g.v.a.a.v.].!.K.).` R s.f.j.h.f.",
"i.i.|..Xy.h.C ! T.Z.!.7XB 9 A C I i.j.i.8Xj.d M K B B I j.j.h.i.",
"q.L.qXI O H m m L o.8.I - W ` x.H H f.@XR.2 7 3.q.=X-.g L 9.a.t.",
"Y.9X} & H j.q.3.Y..Xv O %.N.x.Q.&XC F y.v i x.K.8XL.: ) #.C v.R.",
"K A j h j.Y.W..X6XR 4 F 3.i.x.[.' 9 m ~ I H ! ,.q.7 ^ 1Xv.y g B ",
"3.:.P.t.I ( ` R d < _ 3.R U y.a B ^ L -.x.y.,.L.! m j.L * M %.,.",
"y.+X5XH O I $.-.:.i.z.h.z.2XH y.j.L._.M K ~.,Xa.p d B O.m ^ v.g.",
".X<Xx O  .M.j.j.j.s.i.t.5XZ.9 L.Z.5XS.9 L ! v : W y.g.Z.a.F ~ F.",
"O.v w >.L.N.F.I.R.(.(.~.Q.f A 3.p.F.B + e.` U H [ N.)._.@X$.x W ",
"` ( ` W L O.>.^ H B B A m Z.6.~ ~ ( I m >.K.A.y.i.` Y R m p H R ",
"j.v.v.p.e..Xv @ O.>.a.Z.2X}.w v.h.S.+X!.B ^ ,.a.P.z 1 q.z.S ^ f.",
"a.a.y.a.Z.0XF h A.@X+Xi.3.z - H..X;Xt.x 8 H I W e.m H 5X@XB > ) ",
"e.L.[.$X].9.m A O.A.K . L O.3.j.>.9 9 U e.K.+X3Xv.d ! } 8 :.K K ",
"U A.3.M w a p.x H %.h l F.F.0X6.H l v.L.}.,Xy.l - H ^ B B i.' g ",
"-.A 1 U 9.j.Q.B.L c w W >.8.^.qXL , F ` -.f , H 9.v.j.T.=X' 6 : ",
"g.g.%.L ` v.3XA.1 - O.>.) ` h.a.x W M.,XF O e.Z.g.g.&X@X( x : >.",
"p.g.j.q.o.$.o.@ v y.m.x.p.R.;XC 4 L ' ,.c f v.j.j.:Xz.1 d v.m H ",
"s.g.i.1X[.d @ E v.j.y.x.Q.3Xe.$ U 9.O.W ~ A ~ 3.x.$XI w }.=Xx 1 ",
"g.x.1X_.p B H R x.Z.oX%Xp.m 9 h x.g.g.N.U.!.I.( U y.o.m L 9 x $.",
"e.U.E.p - t.t.L I >.q.d 6 U 3.R 9.E.oX(.K.%.B f R p p 3.C K R.z.",
"G I ' x E 9.Z.K.Z.Z.m 8 y.A.x.g.$.U j R v - } 9.F.>.H T.F.c w B ",
"i.+XR.h h >.%.O.~ U x C U e.a.3XG w g.$XF f >.v.a.=X>.M m 4 L j.",
"i.R.( x ( R.j * ` O.e.;XF H F.Z c e.[ w h ! U U 9.&Xm @ [ 9.j.a.",
"t.i.i.%.0.I 2 ` b.g.}.!.h M ~ 2 Z l B ' f.f.y.6.3.c - 2.v.j.g.y."
};
