/* XPM */
static char *_8de98b4d42b49f2fc95270fd1bf8bb5BDJCYA96bg7X1o6T[] = {
/* columns rows colors chars-per-pixel */
"59 50 72 1 ",
"  c #060401",
". c #080603",
"X c #0C0905",
"o c #0E0C09",
"O c #110E0B",
"+ c #14110E",
"@ c #191613",
"# c #1C1915",
"$ c #1E1C18",
"% c #211E1A",
"& c #24221D",
"* c #272420",
"= c #292622",
"- c #2D2A26",
"; c #2F2C28",
": c #312E2A",
"> c #34322D",
", c #373430",
"< c #393632",
"1 c #3D3A36",
"2 c #3F3C38",
"3 c #413E3A",
"4 c #45423D",
"5 c #474440",
"6 c #494642",
"7 c #4D4945",
"8 c #4F4C48",
"9 c #514E4A",
"0 c #55524D",
"q c #575450",
"w c #595652",
"e c #5D5A55",
"r c #5F5C58",
"t c #615E5A",
"y c #64615D",
"u c #676460",
"i c #696662",
"p c #6C6A65",
"a c #6F6C68",
"s c #716E6A",
"d c #74716D",
"f c #777470",
"g c #797672",
"h c #7C7A76",
"j c #7F7C78",
"k c #817E7A",
"l c #83817D",
"z c #868481",
"x c #898683",
"c c #8C8A86",
"v c #8E8C89",
"b c #918E8B",
"n c #93918E",
"m c #969491",
"M c #999693",
"N c #9B9996",
"B c #9E9C99",
"V c #A19E9B",
"C c #A3A19E",
"Z c #A6A4A1",
"A c #A9A7A4",
"S c #ABA9A6",
"D c #AEACAA",
"F c #B0AEAC",
"G c #B2B0AE",
"H c #B5B4B2",
"J c #B8B7B5",
"K c #BAB9B6",
"L c #BCBAB9",
"P c #C0BFBD",
"I c #C2C1BF",
"U c #CDCBCA",
/* pixels */
"&=>=#+..X...         X#&:;%O    .   O%&,&@O.             . ",
">174>&%#@+@#@#@##@+oOO=164,=#@##@+Oo@-374>&%%%#@###@#@#OOXo",
"9thse9334334311311:&%%3tgdt7333<>-&@=4ykae743333333333,;&$@",
"eyhdyq644444444443<:;:7yggy044433<:-<9pkst0464333335333<>;&",
"yyayq644444434333311140tpiw73333433340ysy073433333333333111",
"asdsiyyyppw440weterttytysyw960ttee0eyaklkgpipi0649qttttweey",
"jlljlllnNlkeeyglkklxczptsyw00pkkllllllnCVVnnVnst0tkkkkkklhl",
"hhkxnMNnllfw9tflczvmZBi6476660idkkklvCCmgttyiiq749tskkkklhl",
"hhkbSCCldgs849ycvxnVFAt,::33439tkkklnPFl0->34944337thllllkh",
"gllCINd919q4340ypdkkkp3-349tpt70tflnCCl4>&4tyslky937eahhhhg",
"klMSIl4&$2844440tdsi93-:0ttdkat79ikNCly&&<wglbCVa7337taghll",
"vVHCle&&2rdyyyskxVs3:%3tskglmVmt44ykkw4-4ykcCFCl4340yw9alcb",
"lbCle<$4edllllcVVMt:%-0dkxkvVVVt334iy4<:wkkcCSly33pds03edhl",
"wty93>&0hlnnMCSPnt3%:3tdkklbVvs7-:30w4449tpglg034pVMkw:<480",
"qq99944ydhlllcbmp33>6wtiadkkki03<340yewweeaksy33tkbky4:<440",
"ppyflhdy0yyyyy94:%3qtttqqtdt3337049yakkfapklp934pse3&;39yyy",
"fhzmZxy6,6qttr0743qpksipksiw88wussittiglcbclt4>4etw1&<4yffg",
"hcZJIx6=@,8yiiipskkkkkkmFmwefkkxvVc036pMSKMk7&&>17y0<4edllk",
"nVGVlq=>1qpdgfggkkkkkkmCZk4wkxxNCVk6<4tggkt7434qeifpe09ydkl",
"SDJz3%O3ukxzzlllkkkkkxFPmi>0vvvSPVd3:4904<&%4efkllclly49rhc",
"zkdq:<5ykzxccvvvcvnbbmCmi63qkklmVd9=;wtt941<6yflnnMNBgw76ri",
"uw3>-7pkxzxxvvbbnmmmmmbk633wpdklkw:%:usut009tpkcmNNVCly417q",
"tw9760ttypdgfsiuttttttttiitytttiuq3>3ugkggsypspppppiy022470",
"tyyyyttqwiaur8787377790tkkputtttutt99tdllllhkgy967q94<;47qw",
"gggkggssscxe1=<wttipdknBCk6wfffkkbbls0qtsfkklkq<;4ysd017eid",
"kllklkkklCBe:#<ifkxvxvCZmp:7kvvnMVVxa339typglk7>-6lnny448yf",
"kkkkkkkkbFSy1;7hnZZZbkkd03@6xNZSFnft3=>579wtdd6<3pSGSd1;;8y",
"kkkzccbbMZMt1,8gbZMxiqre63,wxnmvkiq4337tysdgks414pMnly7<>40",
"kkcmVAFZBcd7138uhbs9-#10tyidkka8,:,4qpklMVFHmd4<7ey0>7y0477",
"ydcbbxkdptqq845qike1*&9adlmvkpw3:30tflmVVMvky9439004;0sy941",
"7ylkdw3>--3ui315wp7;:3dvcVIAfe633tlvMCFPVkq>&&19q931<yhiq1;",
"ttuw655790tkkiw7781-<8pkknSFZf6::9iskxkdt63347yyppadjdi01-&",
"it6>%,8tgkzmMvd92>;;5wuaskMGUv5:&<7eyi0:&%,9uhlzzcMZHzw,$$$",
"fdit667tukvAAni<=&<8wuyuufxmVa113rdvlt3#>0tsgkkcNZZMky4-&27",
"kkkgpt9wtfvSAzt%$&6paayruslkgq,5wdbAnq;@3hlczlznSSBjq62-=8i",
"kkkkkdpttpfks5,;4wpjhhfflnCzw1*29ydkd5:%8llzlxBCMjq51qi5,6q",
"kkkkkzlkatt03*-3rhkzzlzcNZSh<;=3qttit3<>0hjjlcSZzw*:6sve<12",
"kkkkkmDVct>-;30shkjjkzbBGSne&;4wiutew9538tagkcABp5=9xBCy,=*",
"kkkzvVHMg7-%;6ukzzccbnnmMxi4#1eagspyuiuttiiadhMvy4;wcvcq,;:",
"kkkmGFAp<33339tkzcmASZvfe5,;=0hjkhkklxcvccsretghi014w71<<8e",
"kkxMFmd6=30wq9tpgjvMvhp04433<tklcbnnbmvckde779we088741>7rps",
"kkvmVp<=%qfdp979ragg9,::4wyt9tkcNZACNblde51>47<:;4ie447dbzl",
"tidkk0::<tgkgapishpw1:39ydksypsdfghhfpe56889ty9519hdy04quuu",
"6669t5<3qigzvbvcccr<-:rjxxllkfyw71<661=@1tpgzchy8ybncr>-=,1",
"tpkkkw:<3tdfgkdsap8,>10ihllvVk0319uhd6>&4ufklcbxuruuy4=>20y",
"kvACMu::3tsiuttw9831467wagkMHk33<ycVc01>7phlkxAZhw1<1>=1qdl",
"kvVvg9:37dkw3<3weeeyhke6qillsq37euit01148etislZBy2*>800yahj",
"kknkt838ykk6=%,tupflCZy44eky3>3qpt91><6ww00wihMz6-&2yagjljj",
"kkkkstttiiq,-3tdkdcVVnw<36t7&>335557qtpssaipast9-:8yhhjjjjj",
"kddkksadat3-:9skkkmSVx9:3303%:3,>,4qphkkhggdsu5;#,pglllkjjh"
};
