/* XPM */
static char *_bd65f32c2d64091e421c2c7817ecc9aZ83p7wuy3yWSTOdc[] = {
/* columns rows colors chars-per-pixel */
"59 50 123 2 ",
"   c #020201",
".  c #080704",
"X  c #0A0906",
"o  c #0B0B0A",
"O  c #100E0B",
"+  c #13110E",
"@  c #151414",
"#  c #191714",
"$  c #1B1916",
"%  c #1D1C1B",
"&  c #211E1B",
"*  c #23211E",
"=  c #252423",
"-  c #292622",
";  c #2C2A26",
":  c #2D2C2B",
">  c #312E2A",
",  c #34322D",
"<  c #343433",
"1  c #393632",
"2  c #3D3A36",
"3  c #3C3B3A",
"4  c #413E3A",
"5  c #44423D",
"6  c #602341",
"7  c #454442",
"8  c #494642",
"9  c #4D4A45",
"0  c #4D4C4A",
"q  c #514E4A",
"w  c #55524D",
"e  c #545352",
"r  c #595652",
"t  c #5C5A55",
"y  c #5D5C5A",
"u  c #615E5A",
"i  c #64625D",
"p  c #705D66",
"a  c #656463",
"s  c #696662",
"d  c #6C6A65",
"f  c #6D6C6A",
"g  c #716E6A",
"h  c #74716D",
"j  c #757472",
"k  c #797672",
"l  c #7C7A76",
"z  c #7E7C79",
"x  c #E7147B",
"c  c #97677F",
"v  c #817E7A",
"b  c #84817D",
"n  c #F73794",
"m  c #CA749E",
"M  c #DA7CA9",
"N  c #E769A6",
"B  c #E57AAE",
"V  c #858482",
"C  c #898783",
"Z  c #898683",
"A  c #8B8985",
"S  c #8B8A86",
"D  c #8D8C87",
"F  c #8C8A86",
"G  c #898989",
"H  c #8E8C88",
"J  c #8D8C8A",
"K  c #918F8B",
"L  c #918E8B",
"P  c #93908C",
"I  c #94918D",
"U  c #95938F",
"Y  c #93918E",
"T  c #9E8290",
"R  c #929292",
"E  c #969491",
"W  c #959492",
"Q  c #989792",
"!  c #999794",
"~  c #999693",
"^  c #9B9996",
"/  c #9C9996",
"(  c #9B9996",
")  c #9D9A98",
"_  c #9C9B9A",
"`  c #A29F9B",
"'  c #A19E9B",
"]  c #A3A09D",
"[  c #A3A19E",
"{  c #AC98A2",
"}  c gray63",
"|  c #A4A3A0",
" . c #A5A5A5",
".. c #A5A3A2",
"X. c #A9A6A4",
"o. c #ABA9A6",
"O. c #ACABAA",
"+. c #B0AEAC",
"@. c #B2B1AE",
"#. c #B7B7B7",
"$. c #B5B4B3",
"%. c #B8B7B5",
"&. c #BAB8B5",
"*. c #BBBABA",
"=. c #C990AC",
"-. c #D793B4",
";. c #C0BFBD",
":. c #C1C1BE",
">. c #D4ACC0",
",. c #DAB0C4",
"<. c #FCBFDD",
"1. c #C6C6C6",
"2. c #C3C3C3",
"3. c gray80",
"4. c gray80",
"5. c gainsboro",
"6. c #E8C5D6",
"7. c gray88",
"8. c #E9E9E9",
"9. c gray92",
"0. c #EAEAEA",
"q. c #F3E6EC",
"w. c #F8F8F8",
/* pixels */
"* - , * & + . . . . . . . . . . . .     . X $ * , ; $ + . . . . .     . O & - , * # O . . . . . . . . . . . .   . X X ",
", 2 9 4 , * & & $ $ & # # # # & # # + O o + * 2 q 5 1 - $ # # # # + O o # ; 4 9 5 , * & & $ & + + & & & # # # O O O X ",
"q u l g u q 4 4 5 4 4 4 4 4 4 4 4 1 > * % * 3 w i s r 5 1 2 4 1 , ; * $ * 5 i v g t 9 5 5 4 4 4 4 4 4 4 4 4 1 ; * $ + ",
"t i v h u w 5 5 5 5 5 5 4 4 4 4 4 4 1 , ; , 9 3 * * $ @ O * 5 4 5 , , ; 1 w d v g u w 5 5 5 5 5 4 4 4 4 4 4 4 1 , ; - ",
"u i d i r q 5 4 5 5 4 5 4 4 4 4 4 4 4 4 4 1 < 3 3 y y 0 < : = 1 4 2 2 2 5 r i g i w 9 5 4 4 4 4 4 4 4 4 4 4 4 4 5 2 5 ",
"d g k d i i i i d s t 5 5 w r u u u u u u 5 o e  .8.8.1.J 8 . 3 t u t u i g l b v h g i d d r 5 5 q r r u u r u t t r ",
"b b b b b b b P / b v u t d k v v v b A q 3 t { 7.w.8.4.#.b < : 8 z b z b b P ] ` ' P I / E g u r u v v b v v v b b b ",
"l v b b U Q / P b b h r q t h b b b K ~ 4 : R >.<.q.6.-.{ V a = - k l b K [ ] U v u u u d i r 5 5 q u g v v v v b b b ",
"l v v D o.o.] b h h g q 5 q d F G V R _ 7 < #.N n >.B n 6 e G : * k b b U &.o.b w ; , 4 5 q 5 5 4 5 5 u b b b b b b l ",
"k v b ` :.Q g q 4 q w 5 4 5 q i f j z V < : _ =.m p c M c j a = & d b Q ] o.b 9 1 * 5 u i g b v p q 5 5 u g k l l k k ",
"v b Q o.:.b 5 * $ 4 q 5 4 5 8 w i h f a = : f R } 7 j *.#.G 3 = * i b / ] H i * * 1 r l b K [ ] g 5 4 4 5 i d k b b b ",
"F ' &.[ b r * ; 4 u h i i u g v F ! f 7 = % @ 0 G  ._ j a 7 o 3 5 5 i v l t 5 * 5 i l D ] +.] b 5 4 5 r u r q g b b b ",
"b L [ b u 1 * 4 r h b b b b H ` ' K u > = % o = e f y 3 e 3 o 3 4 4 5 i i 5 1 , w k b D [ [ b i 4 5 d h g w 5 r l b b ",
"r u u q 4 , * w v b U U Q ` X.;.R p 4 * : < o @ : < = @ 0 7   : * 1 5 r r 5 5 5 q i d k b k r 5 5 d ] I b w > 1 5 5 5 ",
"w w q q q 5 5 u g v b b b H L I g 4 1 < 7 3 o < f _ V e 3 %   o $ 1 5 r i u r r t t g k g i 2 2 t v P b i 5 > 5 5 5 5 ",
"d d i k b l h i w u u i i u w 5 > & < > 3 3 3 3 0 f a 0 3 3 3 : * ; ; 5 i v v h g d b b d q 5 5 g g t 5 * > 4 5 i d h ",
"h l b U { G y 7 > 8 e u u t e 7 5 4 1 .   : z 7 o o @ : 0 a G y < o o % 0 a j V S K S b t 5 , 5 u i r 4 * 4 5 i h h v ",
"l S X.$.:.V = o . - q u d d d f d 4 : 1 % : y z V 7 f R G y : % = < 0 e = : d R o.&.( k q * ; , 4 5 u q , 5 t h b b b ",
"U ' $.} f 3 3 0 e 7 q g j j j a 0 < : < < < < a V f z G j 3 o @ = < 0 y 0 3 5 f l l i 9 5 5 q r t s v d t w q i h b b ",
"o.@.#.V =   R 7.8.a & h V v V 0 o y e . : 3 o   % j y = = @ o < < .   > O.a o 7 5 1 = & 2 r h l b b b b b i 5 r r v b ",
"b v h w %   V $.J 3 % j G V 7 3 0 3 3 y < : e f G G R G f e : = < 7 > = 7 f j < , 5 2 < 0 i k b P U / / / v r 5 5 i d ",
"s r 5 , %   j  .V 3 = y j z = 3 V : < R e < a G _ R _  .G y 3 : 2 e < @ o y } : % 4 9 0 t d l A I / U ` ] b t 5 4 5 r ",
"u r q 9 :   z 4.9.G 3 @ 7 y @ 7 } < % y y 7 @ = 7 z j y < % o 7 u e 5 = o 7 j % . @ 0 a g h d d g g g s i q 5 5 5 5 q ",
"i i i i e < 0 a j j a a 7 : e y 0 < < 7 < : 0 a j e f R f 7 : : 3 y y 7 < < 7 a 5 X t l l k i q 5 5 w q 5 4 > 5 5 r r ",
"k k k l k h , @ @ 7 j W a : j y @ 7 p f < : f _ _ : a #.G a 7 = 1 C K C g ; % ! h X q v b b 5 4 > 5 i g g r 4 5 r d h ",
"b b b b b b f s f 7 : e j V 3 < a j G G z y = 7 y : 3 a 3 = @ e C _ ( S d % @ f e X 5 v b b 5 > > 5 b P I s 5 5 q d k ",
"l l b b v v l b J l 7 > 7 e : e R  .} } R y @ @ = @ = < = @ o j O.Y k r 3 & & 3 q u 4 4 v g 5 4 4 d o.@.o.g 4 ; > 5 i ",
"l b b b A D P I ~ { l + o o 7 j G  .R G a 3 @ @ o o @ % = % @ e k s r 7 3 3 2 $ y 2.4 - v g 5 , 5 d Q I b i 5 4 , 5 w ",
"l v D E ] X.O.X._ F f 4 > > 9 s z R f 0 % = a e < % @ = < e f < @ : < 5 e 7 = < z >.7 3 Q v 4 4 5 t s q , 5 d r 5 5 w ",
"i h C L P C v h d u e e q 4 5 e a z e = < a } f 3 < < < 3 a  .f 7 : 5 i j 7 @ j  .#.3 : d 5 4 4 w w w 4 ; w h u 5 5 5 ",
"q i b b j t 4 , ; ; 4 s s 4 4 5 r s <   G 1.4.f : 7 0 0 : a 4.4.J o 0 J R e = 1.5.} < @ - * 5 5 r 5 5 4 4 t v s w 4 ; ",
"t u i t 5 5 5 9 q q u v v s r 9 9 0 < % < y } } G y a V G }  .a 3 < t h z f e e 0 3 : : 5 5 u d g h s d v v g 5 4 ; * ",
"d u 9 , & , q u k v b Q ~ H h q 4 , - & = 3 R _ V 7 0 f G W } 0 @ = 7 t i s 9 @ o o ; q s k v V b H Q | $.C r 1 & & & ",
"k g s t 8 8 9 u s k L X.X.I s 1 - & = . : f 2.a o     o o e 1.j < o 7 G b u 4 $ > 9 u g l z v D / [ X.Q b u 5 ; & 2 8 ",
"v v b k g u w r u k H o.X.A r - % = :   a G y 7 < 7 0 0 7 5 y V f . e  .P w : @ 5 l b D b b V I o.o.` v w 8 4 - - q s ",
"v v b v v h s i i d h v g 5 , > 5 y 7   b _ @ 3 V R } V r =   G R o 7 z t 1 = % 3 s l b b A ) | ~ v w 5 2 e s 8 , 8 w ",
"v v v b b b b l d i t w 5 * > 5 i z e   V _ @ 0 _  .o.l 2 &   G R o < e $ o . . o $ y z v D o.o.b t * > 5 d D t 1 4 5 ",
"k v v b v E o.` F t 1 ; ; 4 w d j z e   G  .@ e +. .L t & $   R _ o % = .           = 2 4 j X.) g 5 ; q A ] [ i , - * ",
"v v v b H ] $.~ k q ; * > 8 i b V V y @ G } : e A V s 4 # & . G _ : o                     5 V D i 5 > r A K b r , , > ",
"v v b E @.+.[ g 4 1 1 4 5 9 i v V G R z e e R y & 3 < ; + o   = e _ 7                     o < g i w 2 5 r 9 5 5 1 q r ",
"v b v ' +.E v 5 * 5 w r r w t d j v L ~ < > } e o , 1 % .       < O.0                       @ q w q q q 5 2 2 5 u g h ",
"l b T I ` s , * * w h h i w q q u f j j & - z 7 o 5 <           : V 2                       @ ; > 5 i r 5 5 5 h D b b ",
"i i g v v w > > 1 i v v k g d i g l d r # % f 3 . % @           = j <                     : 3 5 1 q l h i w 5 r i i i ",
"5 5 9 w u 5 > 4 w i k b F L L F A J u < + * j <                 = j <                 o : s k i q i K I b i , ; ; 1 4 ",
"i h v b v r > 4 4 u g v v v h g f a 0 < @ = b 7                 : V 3                 : z C I C i i i i i 5 * , 5 w i ",
"b b [ ] ' u ; > 4 u g s u u u r 0 : $ @ e z f :                 % a j a @           1 i z C X.[ l r 2 2 2 > ; 4 w h b ",
"b b ] P k w , 4 9 g v w 4 1 4 9 7 3 < < G } 0 % . @ = % % # O . @ 3 G } 0 < : o . % 9 i g b X./ i 2 * , q q w i g k l ",
"v b P b u 9 4 q u v v 8 ; & , 4 @ G *.*. .f @   o 5 h y 1 , , $     y } #.*.} ; * 0 w r s l Q C 9 ; * 4 i g k l b b z ",
"v v b v g i t i d i t , > 4 r i 5 r u i 0 : o + = 7 i 9 - , 2 , %   = 0 y a y 7 e f a d f g i q ; , 9 i k v v v b l l ",
"l k l v k h d h g r 5 - > q d b v *           % 1 5 w 2 % ; 4 1 =           o a z j j h h i 5 ; $ , s l b b b v l l l "
};
