/* XPM */
static char *_7b25a1fc26e46198e7e415b7d40087fFkENLJA7hrqHWgsf[] = {
/* columns rows colors chars-per-pixel */
"50 50 174 2 ",
"   c #050201",
".  c #0C0104",
"X  c #0D0B06",
"o  c #0B0A0A",
"O  c #1E0000",
"+  c #150209",
"@  c #1E020C",
"#  c #100E0D",
"$  c #13110E",
"%  c #1E1C01",
"&  c #1C0F13",
"*  c #151413",
"=  c #181513",
"-  c #1B1916",
";  c #1E1B19",
":  c #2E0000",
">  c #20030E",
",  c #300106",
"<  c #3B0000",
"1  c #370D0C",
"2  c #2D0314",
"3  c #390419",
"4  c #261118",
"5  c #211E1B",
"6  c #2A1B1D",
"7  c #201316",
"8  c #302D02",
"9  c #3B3702",
"0  c #25221E",
"q  c #36341B",
"w  c #2A1F22",
"e  c #361822",
"r  c #252422",
"t  c #2A2623",
"y  c #2C2A26",
"u  c #2E2C29",
"i  c #322E2B",
"p  c #3C2B29",
"a  c #35322E",
"s  c #353432",
"d  c #3A3633",
"f  c #3C3935",
"g  c #3E3B39",
"h  c #490001",
"j  c #530202",
"k  c #5B0000",
"l  c #45051A",
"z  c #411010",
"x  c #491616",
"c  c #71020A",
"v  c #710D10",
"b  c #7B1D1C",
"n  c #490520",
"m  c #400D21",
"M  c #520625",
"N  c #5D0624",
"B  c #5B0628",
"V  c #4D142A",
"C  c #471829",
"Z  c #4E192E",
"A  c #53132C",
"S  c #581E35",
"D  c #62072B",
"F  c #6A072D",
"G  c #6B082F",
"H  c #670C30",
"J  c #6E0830",
"K  c #7A0936",
"L  c #7F0B39",
"P  c #730833",
"I  c #76143B",
"U  c #671837",
"Y  c #592036",
"T  c #512A38",
"R  c #413E3A",
"E  c #643939",
"W  c #716909",
"Q  c #736B04",
"!  c #686215",
"~  c #4D4B27",
"^  c #5B582C",
"/  c #45423E",
"(  c #565335",
")  c #625D21",
"_  c #493E40",
"`  c #583843",
"'  c #464441",
"]  c #494642",
"[  c #4D4A45",
"{  c #4E4C49",
"}  c #514E4A",
"|  c #544242",
" . c #55524E",
".. c #565451",
"X. c #595652",
"o. c #5D5A55",
"O. c #5E5C59",
"+. c #615E5A",
"@. c #71565C",
"#. c #64615D",
"$. c #666460",
"%. c #696662",
"&. c #6C6965",
"*. c #6F6C69",
"=. c #716E6A",
"-. c #787764",
";. c #75726E",
":. c #77746F",
">. c #74716D",
",. c #777471",
"<. c #797672",
"1. c #797672",
"2. c #797673",
"3. c #7C7976",
"4. c #7F7D78",
"5. c #7E7C79",
"6. c #91101B",
"7. c #A70000",
"8. c #AA0000",
"9. c #880828",
"0. c #84093A",
"q. c #8C0A3E",
"w. c #82103D",
"e. c #94133C",
"r. c #A8072D",
"t. c #A80939",
"y. c #92272F",
"u. c #92292B",
"i. c #C6093A",
"p. c #950B42",
"a. c #9D0B45",
"s. c #8C1D49",
"d. c #A50C49",
"f. c #A00A42",
"g. c #B30D4F",
"h. c #B80B46",
"j. c #B70D51",
"k. c #BD0D53",
"l. c #C10E55",
"z. c #C70E58",
"x. c #CF0F5B",
"c. c #D40F5D",
"v. c #A84444",
"b. c #846B71",
"n. c #817F7B",
"m. c #807D7A",
"M. c #817E7B",
"N. c #A2970D",
"B. c #BBAE07",
"V. c #83817D",
"C. c #83817D",
"Z. c #858481",
"A. c #888682",
"S. c #898683",
"D. c #8C8986",
"F. c #8E8C8A",
"G. c #918E8A",
"H. c #918F8C",
"J. c #93918D",
"K. c #969491",
"L. c #999693",
"P. c #9B9996",
"I. c #9E9C99",
"U. c #A19E9B",
"Y. c #A3A19E",
"T. c #A6A5A2",
"R. c #A9A7A4",
"E. c #AEACA9",
"W. c #AAA9A6",
"Q. c #B2B2AF",
"!. c #B5B3B2",
"~. c #C4C3C3",
"^. c #CECECE",
"/. c #D9D9D9",
/* pixels */
"$ X                               $ 5 y y 0 = X   .           X = 0 i i 5 $ X                       ",
"y r 5 ; 0 ; ; 0 5 7 5 5 - - $ # $ 0 a / ] R i 0 5 5 - - = $ # = 5 d ] [ R i 0 5 0 5 5 5 5 - 5 5 - 5 ",
"[ / f f d d d d d d d d a i 0 5 ; p [ #.%.+.} / d d d a i 0 5 0 s } &.>.+.} / R d d d d d d d d d a ",
"} ] / R / R R R R R R R R d a i y /  .&.&.%...] R R R f d a i a R o.&.-.+. .[ / / R R R R R R R R R ",
"o. .}  .[ [ / / / [ [ / [ ] ] / / } +.#.&.#...[ ' ( [ [ / / / /  .#.:.1.%.#.o. .} [ / / / [ [ [ [ [ ",
"#.#.#.#.#.#. .} } X.+.+.+.+.+.+.#.#.#.#.#.#. .[ }  .+.+.+.+.+.#.%.>.V.V.<.>.%.%.#.+.} [ [  .o.o.+.+.",
"V.V.V.V.V.:.#. .X.#.=.1.1.1.m.M.C.=.#.+.+.X.} } } #.*.;.;.;.>.1.M.D.G.G.V.<.:.1.;.=.o.[ [ +.%.-.>.>.",
"K.J.G.C.V.V.#. . .%.2.C.A.A.D.U.Y.1.o.[ ( [ [ [ } +.&.1.m.V.V.C.J.Y.L.A.>.%.%.&.&.#.X.} / o.#.b.m.m.",
"Y.U.F.1.-.1.o.[ [ #.;.C.D.D.K.U.E.1.} a p R / / ] [ +.&.1.m.M.D.U.!.J.&./ f / ' {  .} [ / /  .#.1.m.",
"Y.V.o./ / X.] / R [ o.%.>.2.M.M.1.} d a R [ +.+.+.} } X.&.m.D.U.Y.I.&.g u f { O.%.-.m.;.+./ /  .#.&.",
"D.#.a 0 a } [ / / [  .O.&.=.&.+./ a d /  .#.&.2.M.%...[ +.>.D.L.J.4.] 0 u [ #.<.A.K.Y.C.+./ R /  .+.",
"o./ y d } *.&.#.#.&.<.C.D.M. .d t d } #.1.1.M.D.L.L.1...} X.*.1.&.} a a ..&.C.L.Y.R.J.#.a / { o.X.X.",
"/ d a } #.V.V.M.V.D.H.L.D.=.R i t / +.;.1.V.C.J.U.K.;./ R ] o.+.o._ d g +.=.M.H.K.G.;. .f o.>.>.#.} ",
"f f / #.3.F.D.G.J.L.U.P.2. .s i d } %.;.m.V.D.J.G.M.+.R f R } X...( ' ] X.&.:.M.4.=.} ] } 1.F.V.#.[ ",
" . . .#.=.m.V.m.V.C.M.=.X.R f R } X.+.%.*.1.1.1.&.+.} R R / } o.#.+.o.+.+.&.;.1.*.X.' [ #.1.m.%. ./ ",
"=.#.o. .o.#.&.*.*.&.#.X.] R [ X.#.#.#.%.*.*.*.#.X. .}  .}  .X.+.#.&.&.>.;.2.m.=.+.] R [ &.*.#.[ / d ",
"D.>. .R R } +.+.o.X. ./ / [ #.=.1.*.*.=.;.=.+...[ ..+.&.&.&.$.+.#.=.m.C.G.D.C.&. .f / [ #.+.[ a s s ",
"4.#.f i R  .+.%.&.&.#.#.&.*.3.3.m.M.D.K.S.,.X.#.=.;.M.S.F.n.&. .[ o.1.G.K.F.1.#.[ d f /  .+.+./ ' _ ",
"O.] i d | #.=.;.1.1.1.1.4.4.4.V.V.H.P.Y.D.=.} &.Z.Z.J.U.U.D.%.] R } %.m.4.&.o.[ / / } X.+.*.=.#.X...",
"0 t u X.:.C.D.C.V.V.V.V.V.4.4.4.m.U.E.Y.3.o.R &.F.D.U.Q.Y.Z.o.f d [  .} / i 0 d [ #.-.4.C.A.S.C.*.+.",
"a / X.>.M.C.D.D.D.G.G.J.G.J.J.J.J.I.L.M.o.] ] #.M.V.G.L.C.#.R a R +.+...[ R f / ..&.M.D.J.L.P.P.S.,.",
"] ..&.3.V.V.C.D.D.C.D.C.D.D.D.D.D.D.M.%. .] } #.=.:.4.V.%.} i a / =.&.+.o. .} ..#.=.3.Z.G.H.H.L.n.,.",
" .X.O.#.#.>.;.;.>.&.#.#.O.o.O.O.+.+.+.+.%.%.+.+.#.#.%.%.o.[ f f } =.3.m.1.=.&.*.*.=.&.&.&.&.%.#.X.[ ",
"#.#.#.#.*.m.*.+. . . .o.o.o.o.#.#.&.=.m.1.*.O.+.%.%.&.=.&.%.O.o.o.+.=.1.3.3.1.3.:.=.o.} [ o.#.+...' ",
">.=.*.*.3.J.=.} d g / o.#.#.&.*.>.4.D.J.n.&.} #.1.;.*.+.%.>.5.*.+.} +.*.=.1.3.m.3.*.{ f s ..*.*.O.} ",
"3.3.1.V.J.E.1./ y d  .=.4.C.D.A.V.F.H.D.*...R #.A.D...* * ' Z.*. .R ] X.+.%.=.1.<.%./ a a $.S.F.,.+.",
"C.V.C.F.P.!.1.[ i / o.4.G.L.K.A.<.4.3.>.X.' R %.G.K.} . n S ' { ] d ] X.+.%.*.1.>.#./ d g ,.L.K.#.s ",
"G.G.J.J.I.E.-.} f [ #.V.K.I.G.<.O.O.o. .' R ] *.D.K. .+ a.p.+ r a d } +.%.=.;.2.=.o./ / { <.F.S._ + ",
"I.I.I.K.F.n.+.] / [ o.>.V.V.#./ t g { o.O.$.*.<.4.3._ + a.k.a.e X $  .D.K.P.U.H.3.O.R /  .f y t U a.",
"S.Z.3.*.#.X.X.} ] / } #.&.&.] i ; / o.*.4.D.J.C.,.+.g 7 H d.c.L M M ` &.J.J.C.;.O.] u t s C n M J 0.",
"O.[ f i u i X.+.} / /  .o.X.d u a O.3.D.L.T.!.H.&. .R a # M c.c.c.c.B 5 ;.%.] i y 0 #     0.c.c.D   ",
"' ] [ } X.o.;.5.>.#. .{ ] / a a R O.>.4.D.P.E.T.H.O.R w o n c.K N 9.6.b p r - # 1 v K p.q.D J z.B   ",
"g ] ..#.&.<.D.J.F.>. ./ f a a / } +.&.;.4.D.Y.R.P.O.R u w V p.l : h u.v.{ ' ' ' ` y.e.f.h.F N q.A ; ",
"[ { ..+.>.C.I.Y.P.<. .a t u /  .+.+.#.#.=.M.G.J.D. .R R } d . h h    .U.~.^.^.^.!.Z.i , c t.p.@ s ..",
"+.o.o.#.&.4.J.J.4.O./ a a / O.%.*.&.&.=.1.C.F.V.&.R g / o.g   j k   r #.~./././.P.s * < 7.i.a.+ i ..",
";.=.%.%.&.*.3.1.+.[ f f [ O.>.3.3.;.1.3.A.G.F.&.[ s f ] O.' = j j   % ~ P.~./.!.,.8 o , 7.r.0.7 s o.",
"M.Z.C.1.%.o.X.[ f f R  .%.<.n.V.C.C.S.K.I.P.D.O.s i f } X.+...6 .   Q N.q 4.~.' ! B.9   O + 4 d O.,.",
"J.K.L.C.%./ d a f ' o.*.3.V.C.C.A.D.K.P.I.J.:.] t R } +.#. .a z x ' ^ ! [ V.T.$.^ ! ( s     - X.2.F.",
"U.T.Y.A.+.a t y g X.>.V.A.C.D.F.G.J.J.K.F.:. .a t [ +.+.+._ @ c y.m._ s V.D.V.F.O.; #.o.@ @ e +.M.F.",
"Q.P.C. .f f f / ] o.=.V.D.J.U.T.T.L.V.%. ./ a i d %.] = - A d.h.e.w } 3.F.O.s <.Z.*.g Z d.d.0.w s ] ",
"L.m.o.d d } .. . .X.#.>.4.A.K.H.C.=.O.[ ' R g R _ ' T B B B K P A o ..Z.O.{ ' { =.F.u 2 P K P B e ; ",
";.X.i t R =.=.&.o.X. .O.&.>.3.$./ f d / { o.#.o._ * G c.c.p..   o o ..*.* ' ,.r g Z.u o o o 3 l.D . ",
"+.] a d } >.3.3.:.*.*.*.:.>.+.[ a R } O.&.>.>.&.@.s.d.c.c.k.p.p.p.p.S w o * r o * u I p.p.p.d.c.d.p.",
"X.] d R  .;.3.m.4.3.<.<.>.%.{ f a / o.=.<.4.V.V.,.s.p.0.p.p.p.p.L p.e o u s s s ;   D p.L p.p.p.p.p.",
"+.[ a R  .=.1.2.2.1.=.&.$.o.R a s ] +.=.3.Z.S.K.M.w             o o   r 5.F.J.F...                  ",
"+.[ d R X.1.*.+.+.o.+.+.o...] { ....X.#.*.5.Z.F.5.g y u f / ] ' g r r r s g s g 5 o ' ..s r r r y y ",
"o.[ f [ +.M.#.} R ]  .o.o.o.O.&.3.+...} $.=.4.3.*.] ' { o.#.%.#...g ' s o @ 3 3 @ o *.V.{ s s ' [ { ",
"X.} ] o.=.C.X.f y f { #.%.=.3.J.Y.,.../ ..$.=...g g ' X.O...] / g ' ..' o B l.l.H o O.&.s y s { #.*.",
"#.#.O.$.&.%./ a d [ #.,.3.M.J.U.U.*.} f ]  .o.R u d / / / [ ] } ..#.*...* G l.K Z s { _ r d  .%.,.3.",
"-.=.*.=.#.] a i / +.;.M.Z.D.T.T.L.%./ a / / / i 0 f d a a / [ +.*.5.5.#.* H j.2 w o.g r - ' *.5.V.V."
};
