/* XPM */
static char *_a47629c1e384190e6307ca8cd0d693eGNvP1yd3HwpjpyTl[] = {
/* columns rows colors chars-per-pixel */
"50 50 36 1 ",
"  c #100A07",
". c #130D0A",
"X c #17110D",
"o c #18120F",
"O c #161311",
"+ c #1C1511",
"@ c #1E1814",
"# c #1F1C19",
"$ c #211A16",
"% c #251E19",
"& c #291F1B",
"* c #27201A",
"= c #2B231D",
"- c #2F2720",
"; c #302721",
": c #332A23",
"> c #382F27",
", c #372E28",
"< c #382F28",
"1 c #3D332C",
"2 c #41362F",
"3 c #413730",
"4 c #453A32",
"5 c #4A3D36",
"6 c #4C3F38",
"7 c #4B4037",
"8 c #4E413A",
"9 c #51453D",
"0 c #554941",
"q c #5B4E46",
"w c #5E5249",
"e c #65574E",
"r c #66584F",
"t c #675950",
"y c #6D5F55",
"u c #6E6056",
/* pixels */
"@##@##OO.o#@#OX............OO#O#@#*--*-#O.........",
"::,:---#$+o@OOOO####@@####O.OOOOo*=--*%OO O#*---=-",
"868851:-;+.+o.+*--=-------#.... o===-#@. .#,147705",
"853311:-;+ .o@*=--:>1111:-=***#O.X$%##OXOO--:14750",
"67111,:-;$. o*=:>>197411>---===O  .oooooO*=::14755",
"11111---;*o.$--:117uq71,-----=+X       o%--:11211,",
"111,:---;=%.$;>139wq971,----*@X X%o   .+%-,<111311",
"111:----==%.$:124qw7771,--=*$O +*>*$+$++%-,113111,",
"111:-----%o.$-147998871>--*@@o >77211>>*&--:221:--",
"1,,:---=&*%.$->2477872>:--*@ooo>441>>::$%->>2>:--#",
"-------*%*&.$-1214772>;;--*@ X@->1>---=$%;>1>:--##",
"------%%=*+ $:>>:12221;;--*@XX@=::=---;%%-:-:---##",
"-#*==****+..$;::-:122>;;:=*+ooo@**=---=$$*=-----*#",
"#O+**+%%+X  $=;;=-:11>;;=**++O o++*--:=$+$==-===$@",
"@O.XX..X..  X%=*%=--::;==@oooOX ..*=--=oo+$$%$$X+@",
"O%,*%$$++oXXXo%%$=--;;;*$ooooooX  o%$$+X.oooXXX.O@",
".>r722:-=%$+o.+++*--;;=$o.o$$$$oX    XXX.... ...o$",
"o:7>;:;=%o.......X%-;=$oo+$$%$$oo++oo>82,-:=***-$.",
"*;>:--=*+.o==$$+$.X*&$ooo$$%&&$oo@=>-4w8211:--:1*.",
";;----*o. $eq52>1$XooXXo$$%&&&$+o#8r94121=:=--:1=$",
"=;;;=$$+ $:774221*$oXXo$&&&=&&$oo@297221,=----::*+",
";====oooo=>2>2221:*Xoo$%&=&&&&$o+*>7221>,-------*$",
";***$..o=;;;>22>--&X$$+%&&==&&$o@=>211>>--------*+",
";=**$o+*=;;;:>::--*X+%%&;&=&&&$o+*===:>:--------*$",
";==*@@==--------;;&X+&&&&&&&&&++o$**$*=:=:=:=:==%+",
";*$=*+=;--------;;&o+$&&&&&$$$$+$=::==:===:=:==*$+",
";=***@==--;;----;;&Xo$$&&$$$+o+++*=;:=*=:=::==*++o",
";==*+*==;;;-----;;&oXX$$+$++oXX+@@$$=*$=:====*@@X ",
"==*@$===-----;;;;=&XXXXooooooXo&***$=*+***@$*@+@X ",
"=@oo@==:--=;;=&&%&$.XooXo.XXXXX+**++$@o+@@@@+@++. ",
"@o  .@==--;;-*$Xoooo+$$+X      X       O@@@@+$o   ",
"o   X+**%%%%%$ooo24;:::&++oo+;664:;****oo@@@$o.   ",
"    .+++o+o+++o$>99111>-$+++@1ye9111>==XXo++o.    ",
"@o        .oooo>t77111:-*o  $7y97111--=X         .",
"**=22:===*==-==291>>>:--=+X.=79711>>--=%@+@%===$$$",
"=>7wq741222211111-------=$++:11111:-----*$*>21>>:-",
":1797222121221>=:-------=$$-->111:------*@*:1111:-",
"=>711112212121::--------=$$*-->>:----=*$+o$=>112>-",
":>>:>221121211:=---------$@$*========$+X .+*=>11:-",
"=::::1121221>::=--------=$@@$@XXXXXXXX  o+@$$=::;-",
"--=:>7112>>>>=:=--------=$$++o+@++++++++$%%$@%*=--",
"-=:111111>=:=:=:---:----=$@@.+:=--:::-:::=:=@@%=--",
"---111>:>::=-=-:-------*$@++.+=::>>>>1>>>:===++$=-",
"==*111>-===:-:-=-------*@@$+X$::>211>>1>:=---+ o%-",
"@O.:11>-----:-:=-------*@@@@@*=>22:-----=:=:-+  $-",
"*@ =::-----==-:------=*$+o+@*=;>1::-----:=:=-+  X+",
"=@X*============-==-=*@+o X@=;;>>-------=::=*+. ..",
"$o o$$$$$==*==**=**-*@@o  X$=;=;----------=*.o+ .$",
"@oooo@@@@$*$$*$$*@$*@+o   XX++$+@+@@@+@+++++o++o+$",
"@@@.X+@@$++@+@@@@@@@@o           .    ..  ..+$+$+$"
};
